<svg width="21" height="15" viewBox="0 0 21 15" fill="none" xmlns="http://www.w3.org/2000/svg">
<path d="M20.1814 1.28765C19.4235 0.373065 18.0239 0 15.3511 0H5.64873C2.91473 0 1.49148 0.397129 0.736288 1.37083C0 2.3202 0 3.71903 0 5.65503V9.34504C0 13.0957 0.8736 15 5.64873 15H15.3511C17.669 15 18.9534 14.6709 19.7843 13.8637C20.6365 13.036 21 11.6847 21 9.34504V5.65503C21 3.61335 20.9431 2.20628 20.1814 1.28765ZM13.4821 8.00948L9.07627 10.3465C8.97778 10.3988 8.87006 10.4247 8.76248 10.4247C8.64068 10.4247 8.51916 10.3914 8.41152 10.3253C8.20883 10.2006 8.08507 9.97765 8.08507 9.73714V5.07803C8.08507 4.83794 8.20849 4.61518 8.41078 4.49045C8.61312 4.36574 8.86477 4.35721 9.07471 4.4679L13.4806 6.78989C13.7047 6.90802 13.8454 7.14289 13.8457 7.39914C13.8461 7.6556 13.7059 7.8908 13.4821 8.00948Z" fill="white"/>
</svg>
